<svg width="86" height="40" viewBox="0 0 86 40" fill="none" xmlns="http://www.w3.org/2000/svg">
<g clip-path="url(#clip0_473_445)">
<path d="M2.09801 15.837C0.944103 14.9138 0.275738 13.5861 0.0929118 11.8477L0 10.9486H3.45871L3.50367 11.7099C3.54863 12.4771 3.92627 13.0706 4.6336 13.4842C5.32594 13.8828 6.30002 14.0836 7.56182 14.0836C8.62281 14.0836 9.41106 13.9727 9.92357 13.7479C10.4391 13.5262 10.7568 13.2834 10.8797 13.0226C11.0025 12.7619 11.0655 12.4861 11.0655 12.1924C11.0655 12.0066 11.0355 11.8537 10.9726 11.7309C10.9096 11.608 10.8047 11.4941 10.6489 11.3862C10.2023 11.0775 9.62686 10.8167 8.91953 10.6009C8.47295 10.4631 7.64274 10.2563 6.42889 9.97752C5.64364 9.80968 4.75948 9.53095 3.77641 9.14731C2.86828 8.79365 2.13098 8.3171 1.56451 7.71767C0.887157 7.0583 0.551476 6.16514 0.551476 5.04421C0.551476 3.52165 1.12693 2.29282 2.28083 1.35471C3.40477 0.45257 5.02623 0 7.14821 0C9.2702 0 10.9816 0.506519 12.1984 1.52255C13.3673 2.47565 13.9817 3.6835 14.0417 5.14311L14.0866 5.9973H10.7208L10.6279 5.28398C10.5829 4.90034 10.4271 4.54668 10.1663 4.22299C9.90559 3.8993 9.43504 3.63854 8.76068 3.43773C8.29912 3.29987 7.71467 3.23093 7.00734 3.23093C6.30002 3.23093 5.72456 3.30886 5.27799 3.46171C4.86438 3.59958 4.54069 3.76143 4.30991 3.94725C4.12408 4.11809 4.01019 4.28593 3.96523 4.45377C3.88731 4.68455 3.85134 4.93032 3.85134 5.19107C3.85134 5.29897 3.92028 5.42185 4.05815 5.55972C4.27394 5.77551 4.58864 5.96733 5.00225 6.13517C5.40087 6.28803 5.93137 6.45886 6.59374 6.64169L7.44793 6.8485L8.5329 7.10325L9.03941 7.24112C9.82467 7.45692 10.3222 7.60378 10.538 7.67871C11.1524 7.87952 11.7758 8.17923 12.4052 8.57785C13.0646 8.99146 13.5681 9.50098 13.9158 10.1004C14.2605 10.6998 14.4343 11.3682 14.4343 12.1055C14.4343 13.8439 13.7809 15.1626 12.4742 16.0707C11.2453 16.9309 9.59988 17.3625 7.54084 17.3625C5.18807 17.3625 3.37479 16.856 2.101 15.84L2.09801 15.837Z" fill="black"/>
<path d="M29.7794 14.9856C28.152 16.5681 26.1049 17.3593 23.6473 17.3593C21.1896 17.3593 19.1605 16.5591 17.5151 14.9616C15.8247 13.3491 14.9795 11.2721 14.9795 8.73653C14.9795 6.20093 15.8247 4.1269 17.5151 2.51144C19.1425 0.928943 21.1866 0.137695 23.6473 0.137695C26.1079 0.137695 28.173 0.928943 29.8034 2.51144C31.4938 4.12391 32.339 6.20093 32.339 8.73653C32.339 11.2721 31.4848 13.3402 29.7794 14.9856ZM27.4956 4.88818C26.4976 3.95007 25.2118 3.48252 23.6443 3.48252C22.0767 3.48252 20.8 3.95307 19.8169 4.88818C18.7889 5.87125 18.2734 7.15403 18.2734 8.73952C18.2734 10.325 18.7889 11.6228 19.8169 12.5909C20.8 13.529 22.0767 13.9965 23.6443 13.9965C25.2118 13.9965 26.4946 13.529 27.4956 12.5909C28.5086 11.6378 29.0182 10.355 29.0182 8.73952C29.0182 7.12406 28.5116 5.8113 27.4956 4.88818Z" fill="black"/>
<path d="M33.6816 0.299805H36.9096L45.2087 11.5721V0.299805H48.5745V17.2907H45.3226L37.0474 5.97042V17.2907H33.6816V0.299805Z" fill="black"/>
<path d="M67.2257 14.9856C65.5983 16.5681 63.5512 17.3593 61.0935 17.3593C58.6359 17.3593 56.6068 16.5591 54.9614 14.9616C53.271 13.3491 52.4258 11.2721 52.4258 8.73653C52.4258 6.20093 53.271 4.1269 54.9614 2.51144C56.5918 0.928943 58.6359 0.137695 61.0935 0.137695C63.5512 0.137695 65.6193 0.928943 67.2497 2.51144C68.9401 4.12391 69.7853 6.20093 69.7853 8.73653C69.7853 11.2721 68.9311 13.3402 67.2257 14.9826V14.9856ZM64.9419 4.88818C63.9438 3.95007 62.6581 3.48252 61.0906 3.48252C59.523 3.48252 58.2463 3.95007 57.2632 4.88818C56.2352 5.87125 55.7197 7.15403 55.7197 8.73952C55.7197 10.325 56.2352 11.6228 57.2632 12.5909C58.2463 13.529 59.523 13.9965 61.0906 13.9965C62.6581 13.9965 63.9408 13.529 64.9419 12.5909C65.9549 11.6378 66.4644 10.355 66.4644 8.73952C66.4644 7.12406 65.9579 5.8113 64.9419 4.88818Z" fill="black"/>
<path d="M71.1289 0.299805H85.8809V3.5727H74.4947V8.46105H85.8809V11.7819H74.4947V17.2907H71.1289V0.299805Z" fill="black"/>
<path d="M2.40671 38.2529C1.08497 37.1949 0.317698 35.6693 0.1049 33.6762L0 32.6452H3.96823L4.02218 33.5174C4.07613 34.3985 4.50772 35.0789 5.31995 35.5554C6.11419 36.014 7.23213 36.2418 8.67975 36.2418C9.8966 36.2418 10.7987 36.1129 11.3922 35.8581C11.9826 35.6034 12.3483 35.3246 12.4891 35.0249C12.63 34.7252 12.7019 34.4075 12.7019 34.0718C12.7019 33.859 12.666 33.6852 12.597 33.5413C12.5251 33.4005 12.4022 33.2686 12.2254 33.1457C11.7129 32.792 11.0535 32.4923 10.2413 32.2466C9.72876 32.0877 8.77866 31.8509 7.38498 31.5332C6.48584 31.3384 5.4698 31.0207 4.34287 30.5801C3.30286 30.1755 2.45467 29.6271 1.80429 28.9407C1.02802 28.1824 0.641391 27.1604 0.641391 25.8716C0.641391 24.1243 1.30376 22.7156 2.62551 21.6396C3.91128 20.5996 5.77251 20.0781 8.2062 20.0781C10.6399 20.0781 12.606 20.6596 13.9997 21.8225C15.3394 22.9164 16.0468 24.3011 16.1157 25.9765L16.1696 26.9566H12.3063L12.2014 26.1354C12.1475 25.6948 11.9706 25.2902 11.6709 24.9185C11.3712 24.5469 10.8317 24.2472 10.0584 24.0194C9.52795 23.8605 8.85958 23.7826 8.04735 23.7826C7.23513 23.7826 6.57575 23.8695 6.06324 24.0464C5.58669 24.2052 5.21804 24.391 4.9513 24.6008C4.7385 24.7956 4.60662 24.9875 4.55567 25.1823C4.46576 25.446 4.4238 25.7278 4.4238 26.0275C4.4238 26.1504 4.50172 26.2912 4.66057 26.4501C4.90634 26.6988 5.26899 26.9176 5.74554 27.1124C6.2041 27.2893 6.81253 27.4841 7.57081 27.6939L8.55088 27.9307L9.79469 28.2214L10.3761 28.3802C11.2753 28.629 11.8477 28.7938 12.0965 28.8838C12.8008 29.1115 13.5172 29.4562 14.2395 29.9148C14.9977 30.3913 15.5762 30.9728 15.9718 31.6621C16.3674 32.3485 16.5683 33.1157 16.5683 33.9639C16.5683 35.957 15.819 37.4736 14.3204 38.5136C12.9087 39.5027 11.0235 39.9942 8.65877 39.9942C5.96134 39.9942 3.87832 39.4128 2.4157 38.2469L2.40671 38.2529Z" fill="black"/>
<path d="M22.6944 24.1812H16.5293V20.4258H32.6929V24.1812H26.5278V39.9223H22.6914V24.1812H22.6944Z" fill="black"/>
<path d="M34.9382 22.9642C36.8084 21.1479 39.1522 20.2397 41.9755 20.2397C44.7988 20.2397 47.1246 21.1569 49.0128 22.9911C50.952 24.8434 51.923 27.2231 51.923 30.1333C51.923 33.0436 50.952 35.4233 49.0128 37.2756C47.1426 39.0918 44.7988 40 41.9755 40C39.1522 40 36.7814 39.0918 34.9112 37.2756C32.9721 35.4233 32.001 33.0436 32.001 30.1333C32.001 27.2231 32.981 24.8524 34.9382 22.9642ZM37.5577 34.5512C38.7026 35.6271 40.1772 36.1636 41.9755 36.1636C43.7738 36.1636 45.2394 35.6241 46.3663 34.5512C47.5472 33.4212 48.1376 31.9496 48.1376 30.1333C48.1376 28.3171 47.5472 26.8275 46.3663 25.7155C45.2364 24.6396 43.7738 24.1031 41.9755 24.1031C40.1772 24.1031 38.7026 24.6396 37.5577 25.7155C36.3948 26.8095 35.8104 28.2811 35.8104 30.1333C35.8104 31.9856 36.3918 33.4932 37.5577 34.5512Z" fill="black"/>
<path d="M53.463 20.4229H57.1674L66.6894 33.3586V20.4229H70.5527V39.9193H66.8213L57.3233 26.9297V39.9193H53.46V20.4229H53.463Z" fill="black"/>
<path d="M73.2178 20.4229H85.8837V24.1783H77.0811V28.2514L85.8837 28.2694V32.0788L77.0811 32.0608V36.1339H85.8837V39.9163H73.2178V20.4229Z" fill="black"/>
</g>
<defs>
<clipPath id="clip0_473_445">
<rect width="85.8834" height="40" fill="white"/>
</clipPath>
</defs>
</svg>
