<svg width="69" height="32" viewBox="0 0 69 32" fill="none" xmlns="http://www.w3.org/2000/svg">
<g clip-path="url(#clip0_478_859)">
<path d="M1.67841 12.6696C0.755283 11.9311 0.22059 10.8689 0.0743294 9.4782L0 8.75888H2.76697L2.80294 9.3679C2.8389 9.98172 3.14102 10.4565 3.70688 10.7874C4.26075 11.1063 5.04001 11.2669 6.04945 11.2669C6.89825 11.2669 7.52885 11.1782 7.93886 10.9984C8.35127 10.8209 8.60543 10.6267 8.70373 10.4181C8.80204 10.2095 8.85239 9.98891 8.85239 9.75394C8.85239 9.60528 8.82841 9.48299 8.77806 9.38469C8.72771 9.28638 8.64379 9.19527 8.51911 9.10895C8.16185 8.86198 7.70148 8.65338 7.13562 8.48074C6.77836 8.37045 6.11419 8.20501 5.14312 7.98202C4.51491 7.84775 3.80758 7.62476 3.02113 7.31785C2.29462 7.03492 1.70478 6.65368 1.25161 6.17414C0.709726 5.64664 0.441181 4.93212 0.441181 4.03537C0.441181 2.81732 0.901544 1.83426 1.82467 1.08377C2.72381 0.362056 4.02098 0 5.71857 0C7.41616 0 8.78526 0.405215 9.75873 1.21804C10.6938 1.98052 11.1854 2.9468 11.2333 4.11449L11.2693 4.79784H8.57665L8.50232 4.22718C8.46636 3.92028 8.34168 3.63735 8.13307 3.37839C7.92447 3.11944 7.54803 2.91084 7.00854 2.75019C6.63929 2.63989 6.17174 2.58474 5.60588 2.58474C5.04001 2.58474 4.57965 2.64709 4.22239 2.76937C3.8915 2.87966 3.63255 3.00914 3.44792 3.1578C3.29927 3.29447 3.20815 3.42874 3.17219 3.56302C3.10985 3.74764 3.08107 3.94425 3.08107 4.15286C3.08107 4.23917 3.13622 4.33748 3.24652 4.44778C3.41915 4.62041 3.67091 4.77387 4.0018 4.90814C4.3207 5.03042 4.74509 5.16709 5.27499 5.31335L5.95834 5.4788L6.82632 5.6826L7.23153 5.7929C7.85973 5.96553 8.25776 6.08302 8.43039 6.14297C8.92193 6.30361 9.42065 6.54339 9.92417 6.86228C10.4517 7.19317 10.8545 7.60078 11.1326 8.08033C11.4084 8.55987 11.5474 9.09456 11.5474 9.6844C11.5474 11.0751 11.0247 12.1301 9.97932 12.8566C8.99625 13.5447 7.6799 13.89 6.03267 13.89C4.15046 13.89 2.69984 13.4848 1.6808 12.672L1.67841 12.6696Z" fill="white"/>
<path d="M23.8234 11.9887C22.5214 13.2547 20.8837 13.8877 18.9176 13.8877C16.9515 13.8877 15.3282 13.2475 14.0119 11.9695C12.6596 10.6795 11.9834 9.01789 11.9834 6.98942C11.9834 4.96094 12.6596 3.30172 14.0119 2.00935C15.3138 0.74335 16.9491 0.110352 18.9176 0.110352C20.8861 0.110352 22.5382 0.74335 23.8425 2.00935C25.1948 3.29932 25.871 4.96094 25.871 6.98942C25.871 9.01789 25.1877 10.6723 23.8234 11.9887ZM21.9963 3.91074C21.1978 3.16025 20.1692 2.78621 18.9152 2.78621C17.6612 2.78621 16.6398 3.16265 15.8533 3.91074C15.0309 4.69719 14.6185 5.72342 14.6185 6.99181C14.6185 8.26021 15.0309 9.29842 15.8533 10.0729C16.6398 10.8234 17.6612 11.1974 18.9152 11.1974C20.1692 11.1974 21.1954 10.8234 21.9963 10.0729C22.8067 9.31041 23.2143 8.28419 23.2143 6.99181C23.2143 5.69944 22.8091 4.64924 21.9963 3.91074Z" fill="white"/>
<path d="M26.9453 0.240234H29.5277L36.167 9.25807V0.240234H38.8596V13.8329H36.2581L29.638 4.77673V13.8329H26.9453V0.240234Z" fill="white"/>
<path d="M53.7804 11.9887C52.4784 13.2547 50.8408 13.8877 48.8746 13.8877C46.9085 13.8877 45.2853 13.2475 43.9689 11.9695C42.6166 10.6795 41.9404 9.01789 41.9404 6.98942C41.9404 4.96094 42.6166 3.30172 43.9689 2.00935C45.2733 0.74335 46.9085 0.110352 48.8746 0.110352C50.8408 0.110352 52.4952 0.74335 53.7996 2.00935C55.1519 3.29932 55.828 4.96094 55.828 6.98942C55.828 9.01789 55.1447 10.6723 53.7804 11.9863V11.9887ZM51.9533 3.91074C51.1549 3.16025 50.1263 2.78621 48.8722 2.78621C47.6182 2.78621 46.5968 3.16025 45.8104 3.91074C44.9879 4.69719 44.5755 5.72342 44.5755 6.99181C44.5755 8.26021 44.9879 9.29842 45.8104 10.0729C46.5968 10.8234 47.6182 11.1974 48.8722 11.1974C50.1263 11.1974 51.1525 10.8234 51.9533 10.0729C52.7637 9.31041 53.1714 8.28419 53.1714 6.99181C53.1714 5.69944 52.7661 4.64924 51.9533 3.91074Z" fill="white"/>
<path d="M56.9033 0.240234H68.7049V2.85855H59.596V6.76923H68.7049V9.42591H59.596V13.8329H56.9033V0.240234Z" fill="white"/>
<path d="M1.92537 30.6023C0.867975 29.7559 0.254158 28.5355 0.0839203 26.941L0 26.1161H3.17458L3.21774 26.8139C3.2609 27.5188 3.60617 28.0631 4.25596 28.4443C4.89135 28.8112 5.7857 28.9934 6.9438 28.9934C7.91728 28.9934 8.63899 28.8903 9.11374 28.6865C9.58609 28.4827 9.87861 28.2597 9.99131 28.0199C10.104 27.7802 10.1615 27.526 10.1615 27.2575C10.1615 27.0872 10.1328 26.9482 10.0776 26.8331C10.0201 26.7204 9.92177 26.6149 9.78031 26.5166C9.3703 26.2336 8.8428 25.9939 8.19301 25.7973C7.783 25.6702 7.02293 25.4808 5.90799 25.2266C5.18867 25.0707 4.37584 24.8166 3.4743 24.4641C2.64229 24.1404 1.96373 23.7016 1.44343 23.1526C0.822419 22.5459 0.513112 21.7283 0.513112 20.6973C0.513112 19.2994 1.04301 18.1725 2.1004 17.3117C3.12903 16.4797 4.61801 16.0625 6.56496 16.0625C8.51191 16.0625 10.0848 16.5277 11.1998 17.458C12.2715 18.3331 12.8374 19.4409 12.8925 20.7812L12.9357 21.5653H9.84505L9.76112 20.9083C9.71797 20.5558 9.5765 20.2321 9.33673 19.9348C9.09696 19.6375 8.66537 19.3977 8.04675 19.2155C7.62236 19.0884 7.08767 19.0261 6.43788 19.0261C5.7881 19.0261 5.2606 19.0956 4.85059 19.2371C4.46935 19.3642 4.17443 19.5128 3.96104 19.6807C3.7908 19.8365 3.6853 19.99 3.64454 20.1458C3.57261 20.3568 3.53904 20.5822 3.53904 20.822C3.53904 20.9203 3.60138 21.033 3.72846 21.1601C3.92507 21.3591 4.21519 21.5341 4.59643 21.69C4.96328 21.8314 5.45002 21.9873 6.05664 22.1551L6.8407 22.3445L7.83575 22.5771L8.30091 22.7042C9.02023 22.9032 9.47819 23.0351 9.6772 23.107C10.2407 23.2892 10.8137 23.565 11.3916 23.9318C11.9982 24.3131 12.461 24.7782 12.7775 25.3297C13.094 25.8788 13.2546 26.4926 13.2546 27.1711C13.2546 28.7656 12.6552 29.9789 11.4563 30.8109C10.327 31.6021 8.81882 31.9954 6.92702 31.9954C4.76907 31.9954 3.10265 31.5302 1.93256 30.5975L1.92537 30.6023Z" fill="white"/>
<path d="M18.1557 19.3452H13.2236V16.3408H26.1545V19.3452H21.2224V31.938H18.1533V19.3452H18.1557Z" fill="white"/>
<path d="M27.9504 18.3709C29.4465 16.9179 31.3216 16.1914 33.5802 16.1914C35.8389 16.1914 37.6995 16.9251 39.2101 18.3925C40.7614 19.8743 41.5382 21.7781 41.5382 24.1063C41.5382 26.4345 40.7614 28.3383 39.2101 29.8201C37.7139 31.2731 35.8389 31.9996 33.5802 31.9996C31.3216 31.9996 29.425 31.2731 27.9288 29.8201C26.3774 28.3383 25.6006 26.4345 25.6006 24.1063C25.6006 21.7781 26.3846 19.8815 27.9504 18.3709ZM30.046 27.6405C30.9619 28.5013 32.1416 28.9305 33.5802 28.9305C35.0188 28.9305 36.1913 28.4989 37.0929 27.6405C38.0376 26.7366 38.5099 25.5593 38.5099 24.1063C38.5099 22.6533 38.0376 21.4616 37.0929 20.572C36.1889 19.7113 35.0188 19.2821 33.5802 19.2821C32.1416 19.2821 30.9619 19.7113 30.046 20.572C29.1156 21.4472 28.6481 22.6245 28.6481 24.1063C28.6481 25.5881 29.1132 26.7941 30.046 27.6405Z" fill="white"/>
<path d="M42.77 16.3379H45.7336L53.3511 26.6865V16.3379H56.4418V31.9351H53.4566L45.8582 21.5433V31.9351H42.7676V16.3379H42.77Z" fill="white"/>
<path d="M58.5742 16.3379H68.707V19.3422H61.6649V22.6007L68.707 22.6151V25.6626L61.6649 25.6482V28.9067H68.707V31.9327H58.5742V16.3379Z" fill="white"/>
</g>
<defs>
<clipPath id="clip0_478_859">
<rect width="68.7067" height="32" fill="white"/>
</clipPath>
</defs>
</svg>
